<svg version="1.0" xmlns="http://www.w3.org/2000/svg" width="458.000000pt" height="458.000000pt"
    viewBox="0 0 458.000000 458.000000" preserveAspectRatio="xMidYMid meet">

    <g transform="translate(0.000000,458.000000) scale(0.100000,-0.100000)" fill="#3c750e" stroke="none">
        <path d="M1208 3656 c-52 -46 -111 -103 -132 -127 -194 -226 -192 -571 5 -792
27 -31 149 -142 269 -248 121 -105 220 -195 220 -199 0 -5 -87 -84 -192 -176
-251 -218 -300 -266 -349 -341 -144 -220 -126 -521 43 -718 71 -83 225 -215
252 -215 18 0 149 108 468 386 244 213 456 399 471 414 l29 27 -356 311 -357
311 357 312 c345 302 356 312 338 329 -11 10 -223 196 -473 414 -308 269 -461
396 -477 396 -14 0 -58 -32 -116 -84z" />
        <path d="M2771 3329 c-259 -226 -471 -414 -470 -418 0 -3 158 -143 350 -310
192 -166 349 -307 349 -311 0 -5 -157 -147 -350 -315 -192 -168 -350 -307
-350 -310 0 -2 212 -189 470 -415 337 -293 477 -410 494 -410 27 0 183 133
254 216 84 98 142 255 142 384 0 124 -52 272 -131 378 -22 29 -148 147 -280
262 l-240 209 233 204 c261 229 272 240 320 317 75 120 105 238 95 371 -12
147 -82 292 -194 400 -110 105 -177 159 -199 159 -14 0 -181 -139 -493 -411z" />
    </g>
</svg>